<svg id="visual" viewBox="0 0 675 900" width="675" height="900" xmlns="http://www.w3.org/2000/svg" xmlns:xlink="http://www.w3.org/1999/xlink" version="1.1"><path d="M0 221L22.5 228C45 235 90 249 135 242.8C180 236.7 225 210.3 270 211.8C315 213.3 360 242.7 405 257.5C450 272.3 495 272.7 540 277C585 281.3 630 289.7 652.5 293.8L675 298L675 901L652.5 901C630 901 585 901 540 901C495 901 450 901 405 901C360 901 315 901 270 901C225 901 180 901 135 901C90 901 45 901 22.5 901L0 901Z" fill="#a4d0d8"></path><path d="M0 341L22.5 344.7C45 348.3 90 355.7 135 364.2C180 372.7 225 382.3 270 380.5C315 378.7 360 365.3 405 363.5C450 361.7 495 371.3 540 378.7C585 386 630 391 652.5 393.5L675 396L675 901L652.5 901C630 901 585 901 540 901C495 901 450 901 405 901C360 901 315 901 270 901C225 901 180 901 135 901C90 901 45 901 22.5 901L0 901Z" fill="#a4c0d9"></path><path d="M0 521L22.5 522.8C45 524.7 90 528.3 135 515.7C180 503 225 474 270 467.5C315 461 360 477 405 486.5C450 496 495 499 540 497.5C585 496 630 490 652.5 487L675 484L675 901L652.5 901C630 901 585 901 540 901C495 901 450 901 405 901C360 901 315 901 270 901C225 901 180 901 135 901C90 901 45 901 22.5 901L0 901Z" fill="#b2adcc"></path><path d="M0 595L22.5 595.5C45 596 90 597 135 599.2C180 601.3 225 604.7 270 610.5C315 616.3 360 624.7 405 620.3C450 616 495 599 540 603.7C585 608.3 630 634.7 652.5 647.8L675 661L675 901L652.5 901C630 901 585 901 540 901C495 901 450 901 405 901C360 901 315 901 270 901C225 901 180 901 135 901C90 901 45 901 22.5 901L0 901Z" fill="#be9bb1"></path><path d="M0 725L22.5 721.8C45 718.7 90 712.3 135 719.8C180 727.3 225 748.7 270 762.2C315 775.7 360 781.3 405 784.5C450 787.7 495 788.3 540 788C585 787.7 630 786.3 652.5 785.7L675 785L675 901L652.5 901C630 901 585 901 540 901C495 901 450 901 405 901C360 901 315 901 270 901C225 901 180 901 135 901C90 901 45 901 22.5 901L0 901Z" fill="#bc8f8f"></path></svg>