<svg id="visual" viewBox="0 0 900 400" width="900" height="400" xmlns="http://www.w3.org/2000/svg" xmlns:xlink="http://www.w3.org/1999/xlink" version="1.1"><path d="M0 116L21.5 107C43 98 86 80 128.8 81.7C171.7 83.3 214.3 104.7 257.2 111.7C300 118.7 343 111.3 385.8 99.5C428.7 87.7 471.3 71.3 514.2 68.2C557 65 600 75 642.8 86.8C685.7 98.7 728.3 112.3 771.2 107C814 101.7 857 77.3 878.5 65.2L900 53L900 401L878.5 401C857 401 814 401 771.2 401C728.3 401 685.7 401 642.8 401C600 401 557 401 514.2 401C471.3 401 428.7 401 385.8 401C343 401 300 401 257.2 401C214.3 401 171.7 401 128.8 401C86 401 43 401 21.5 401L0 401Z" fill="#a4d0d8"></path><path d="M0 156L21.5 162.2C43 168.3 86 180.7 128.8 184C171.7 187.3 214.3 181.7 257.2 180.8C300 180 343 184 385.8 186.8C428.7 189.7 471.3 191.3 514.2 182.2C557 173 600 153 642.8 142C685.7 131 728.3 129 771.2 133.2C814 137.3 857 147.7 878.5 152.8L900 158L900 401L878.5 401C857 401 814 401 771.2 401C728.3 401 685.7 401 642.8 401C600 401 557 401 514.2 401C471.3 401 428.7 401 385.8 401C343 401 300 401 257.2 401C214.3 401 171.7 401 128.8 401C86 401 43 401 21.5 401L0 401Z" fill="#a5bfd7"></path><path d="M0 243L21.5 240.2C43 237.3 86 231.7 128.8 222C171.7 212.3 214.3 198.7 257.2 199.3C300 200 343 215 385.8 212.8C428.7 210.7 471.3 191.3 514.2 190.8C557 190.3 600 208.7 642.8 213.3C685.7 218 728.3 209 771.2 208.8C814 208.7 857 217.3 878.5 221.7L900 226L900 401L878.5 401C857 401 814 401 771.2 401C728.3 401 685.7 401 642.8 401C600 401 557 401 514.2 401C471.3 401 428.7 401 385.8 401C343 401 300 401 257.2 401C214.3 401 171.7 401 128.8 401C86 401 43 401 21.5 401L0 401Z" fill="#b2adc9"></path><path d="M0 289L21.5 286.8C43 284.7 86 280.3 128.8 282C171.7 283.7 214.3 291.3 257.2 296C300 300.7 343 302.3 385.8 294.5C428.7 286.7 471.3 269.3 514.2 262C557 254.7 600 257.3 642.8 263.7C685.7 270 728.3 280 771.2 276.3C814 272.7 857 255.3 878.5 246.7L900 238L900 401L878.5 401C857 401 814 401 771.2 401C728.3 401 685.7 401 642.8 401C600 401 557 401 514.2 401C471.3 401 428.7 401 385.8 401C343 401 300 401 257.2 401C214.3 401 171.7 401 128.8 401C86 401 43 401 21.5 401L0 401Z" fill="#bb9cae"></path><path d="M0 335L21.5 335.3C43 335.7 86 336.3 128.8 338.5C171.7 340.7 214.3 344.3 257.2 340C300 335.7 343 323.3 385.8 325.5C428.7 327.7 471.3 344.3 514.2 352.5C557 360.7 600 360.3 642.8 353.7C685.7 347 728.3 334 771.2 326.3C814 318.7 857 316.3 878.5 315.2L900 314L900 401L878.5 401C857 401 814 401 771.2 401C728.3 401 685.7 401 642.8 401C600 401 557 401 514.2 401C471.3 401 428.7 401 385.8 401C343 401 300 401 257.2 401C214.3 401 171.7 401 128.8 401C86 401 43 401 21.5 401L0 401Z" fill="#bc8f8f"></path></svg>