<svg id="visual" viewBox="0 0 900 600" width="900" height="600" xmlns="http://www.w3.org/2000/svg" xmlns:xlink="http://www.w3.org/1999/xlink" version="1.1"><path d="M0 373L21.5 379C43 385 86 397 128.8 402.5C171.7 408 214.3 407 257.2 397.8C300 388.7 343 371.3 385.8 370C428.7 368.7 471.3 383.3 514.2 391.3C557 399.3 600 400.7 642.8 396.2C685.7 391.7 728.3 381.3 771.2 376.3C814 371.3 857 371.7 878.5 371.8L900 372L900 601L878.5 601C857 601 814 601 771.2 601C728.3 601 685.7 601 642.8 601C600 601 557 601 514.2 601C471.3 601 428.7 601 385.8 601C343 601 300 601 257.2 601C214.3 601 171.7 601 128.8 601C86 601 43 601 21.5 601L0 601Z" fill="#bc8f8f"></path><path d="M0 439L21.5 436.8C43 434.7 86 430.3 128.8 429C171.7 427.7 214.3 429.3 257.2 433.5C300 437.7 343 444.3 385.8 441.7C428.7 439 471.3 427 514.2 424.3C557 421.7 600 428.3 642.8 435.7C685.7 443 728.3 451 771.2 446.7C814 442.3 857 425.7 878.5 417.3L900 409L900 601L878.5 601C857 601 814 601 771.2 601C728.3 601 685.7 601 642.8 601C600 601 557 601 514.2 601C471.3 601 428.7 601 385.8 601C343 601 300 601 257.2 601C214.3 601 171.7 601 128.8 601C86 601 43 601 21.5 601L0 601Z" fill="#be9bb1"></path><path d="M0 458L21.5 461.8C43 465.7 86 473.3 128.8 472.2C171.7 471 214.3 461 257.2 461.5C300 462 343 473 385.8 481.8C428.7 490.7 471.3 497.3 514.2 491.5C557 485.7 600 467.3 642.8 458C685.7 448.7 728.3 448.3 771.2 451.5C814 454.7 857 461.3 878.5 464.7L900 468L900 601L878.5 601C857 601 814 601 771.2 601C728.3 601 685.7 601 642.8 601C600 601 557 601 514.2 601C471.3 601 428.7 601 385.8 601C343 601 300 601 257.2 601C214.3 601 171.7 601 128.8 601C86 601 43 601 21.5 601L0 601Z" fill="#b2adcc"></path><path d="M0 515L21.5 519.2C43 523.3 86 531.7 128.8 528.7C171.7 525.7 214.3 511.3 257.2 508.7C300 506 343 515 385.8 513.8C428.7 512.7 471.3 501.3 514.2 501.3C557 501.3 600 512.7 642.8 519.3C685.7 526 728.3 528 771.2 521.8C814 515.7 857 501.3 878.5 494.2L900 487L900 601L878.5 601C857 601 814 601 771.2 601C728.3 601 685.7 601 642.8 601C600 601 557 601 514.2 601C471.3 601 428.7 601 385.8 601C343 601 300 601 257.2 601C214.3 601 171.7 601 128.8 601C86 601 43 601 21.5 601L0 601Z" fill="#a4c0d9"></path><path d="M0 525L21.5 530.7C43 536.3 86 547.7 128.8 555.5C171.7 563.3 214.3 567.7 257.2 564C300 560.3 343 548.7 385.8 545.2C428.7 541.7 471.3 546.3 514.2 547.2C557 548 600 545 642.8 543.3C685.7 541.7 728.3 541.3 771.2 546.2C814 551 857 561 878.5 566L900 571L900 601L878.5 601C857 601 814 601 771.2 601C728.3 601 685.7 601 642.8 601C600 601 557 601 514.2 601C471.3 601 428.7 601 385.8 601C343 601 300 601 257.2 601C214.3 601 171.7 601 128.8 601C86 601 43 601 21.5 601L0 601Z" fill="#a4d0d8"></path></svg>