<svg id="visual" viewBox="0 0 675 300" width="675" height="300" xmlns="http://www.w3.org/2000/svg" xmlns:xlink="http://www.w3.org/1999/xlink" version="1.1"><path d="M0 113L22.5 108C45 103 90 93 135 87.8C180 82.7 225 82.3 270 87.7C315 93 360 104 405 109C450 114 495 113 540 108.5C585 104 630 96 652.5 92L675 88L675 301L652.5 301C630 301 585 301 540 301C495 301 450 301 405 301C360 301 315 301 270 301C225 301 180 301 135 301C90 301 45 301 22.5 301L0 301Z" fill="#a4d0d8"></path><path d="M0 163L22.5 160.5C45 158 90 153 135 152.7C180 152.3 225 156.7 270 160.5C315 164.3 360 167.7 405 167C450 166.3 495 161.7 540 158.5C585 155.3 630 153.7 652.5 152.8L675 152L675 301L652.5 301C630 301 585 301 540 301C495 301 450 301 405 301C360 301 315 301 270 301C225 301 180 301 135 301C90 301 45 301 22.5 301L0 301Z" fill="#b2adcc"></path><path d="M0 227L22.5 227.8C45 228.7 90 230.3 135 227.7C180 225 225 218 270 214.3C315 210.7 360 210.3 405 212.8C450 215.3 495 220.7 540 222.3C585 224 630 222 652.5 221L675 220L675 301L652.5 301C630 301 585 301 540 301C495 301 450 301 405 301C360 301 315 301 270 301C225 301 180 301 135 301C90 301 45 301 22.5 301L0 301Z" fill="#bc8f8f"></path></svg>