<svg id="visual" viewBox="0 0 675 300" width="675" height="300" xmlns="http://www.w3.org/2000/svg" xmlns:xlink="http://www.w3.org/1999/xlink" version="1.1"><path d="M0 218L22.5 214C45 210 90 202 135 196.5C180 191 225 188 270 190.2C315 192.3 360 199.7 405 202C450 204.3 495 201.7 540 201C585 200.3 630 201.7 652.5 202.3L675 203L675 0L652.5 0C630 0 585 0 540 0C495 0 450 0 405 0C360 0 315 0 270 0C225 0 180 0 135 0C90 0 45 0 22.5 0L0 0Z" fill="#a4d0d8"></path><path d="M0 147L22.5 147.2C45 147.3 90 147.7 135 148.3C180 149 225 150 270 146C315 142 360 133 405 133.3C450 133.7 495 143.3 540 144.3C585 145.3 630 137.7 652.5 133.8L675 130L675 0L652.5 0C630 0 585 0 540 0C495 0 450 0 405 0C360 0 315 0 270 0C225 0 180 0 135 0C90 0 45 0 22.5 0L0 0Z" fill="#b2adcc"></path><path d="M0 70L22.5 72.5C45 75 90 80 135 78.8C180 77.7 225 70.3 270 69.3C315 68.3 360 73.7 405 77.8C450 82 495 85 540 86.2C585 87.3 630 86.7 652.5 86.3L675 86L675 0L652.5 0C630 0 585 0 540 0C495 0 450 0 405 0C360 0 315 0 270 0C225 0 180 0 135 0C90 0 45 0 22.5 0L0 0Z" fill="#bc8f8f"></path></svg>