<svg id="visual" viewBox="0 0 900 150" width="900" height="150" xmlns="http://www.w3.org/2000/svg" xmlns:xlink="http://www.w3.org/1999/xlink" version="1.1"><path d="M0 54L12.5 50.3C25 46.7 50 39.3 75 40.2C100 41 125 50 150 53.8C175 57.7 200 56.3 225 53C250 49.7 275 44.3 300 43.7C325 43 350 47 375 45.3C400 43.7 425 36.3 450 34C475 31.7 500 34.3 525 39.3C550 44.3 575 51.7 600 55.3C625 59 650 59 675 55.8C700 52.7 725 46.3 750 40.7C775 35 800 30 825 29.2C850 28.3 875 31.7 887.5 33.3L900 35L900 151L887.5 151C875 151 850 151 825 151C800 151 775 151 750 151C725 151 700 151 675 151C650 151 625 151 600 151C575 151 550 151 525 151C500 151 475 151 450 151C425 151 400 151 375 151C350 151 325 151 300 151C275 151 250 151 225 151C200 151 175 151 150 151C125 151 100 151 75 151C50 151 25 151 12.5 151L0 151Z" fill="#a4d0d8"></path><path d="M0 79L12.5 80.8C25 82.7 50 86.3 75 84.3C100 82.3 125 74.7 150 70.2C175 65.7 200 64.3 225 63C250 61.7 275 60.3 300 63.8C325 67.3 350 75.7 375 81.3C400 87 425 90 450 86C475 82 500 71 525 69.8C550 68.7 575 77.3 600 77.2C625 77 650 68 675 70C700 72 725 85 750 87.2C775 89.3 800 80.7 825 76.7C850 72.7 875 73.3 887.5 73.7L900 74L900 151L887.5 151C875 151 850 151 825 151C800 151 775 151 750 151C725 151 700 151 675 151C650 151 625 151 600 151C575 151 550 151 525 151C500 151 475 151 450 151C425 151 400 151 375 151C350 151 325 151 300 151C275 151 250 151 225 151C200 151 175 151 150 151C125 151 100 151 75 151C50 151 25 151 12.5 151L0 151Z" fill="#b2adc9"></path><path d="M0 129L12.5 123.5C25 118 50 107 75 101.8C100 96.7 125 97.3 150 97C175 96.7 200 95.3 225 97.7C250 100 275 106 300 107.2C325 108.3 350 104.7 375 102.5C400 100.3 425 99.7 450 100C475 100.3 500 101.7 525 101.3C550 101 575 99 600 99C625 99 650 101 675 104.2C700 107.3 725 111.7 750 115C775 118.3 800 120.7 825 122C850 123.3 875 123.7 887.5 123.8L900 124L900 151L887.5 151C875 151 850 151 825 151C800 151 775 151 750 151C725 151 700 151 675 151C650 151 625 151 600 151C575 151 550 151 525 151C500 151 475 151 450 151C425 151 400 151 375 151C350 151 325 151 300 151C275 151 250 151 225 151C200 151 175 151 150 151C125 151 100 151 75 151C50 151 25 151 12.5 151L0 151Z" fill="#bc8f8f"></path></svg>