<svg id="visual" viewBox="0 0 900 150" width="900" height="150" xmlns="http://www.w3.org/2000/svg" xmlns:xlink="http://www.w3.org/1999/xlink" version="1.1"><rect x="0" y="0" width="900" height="150" fill="#001122"></rect><path d="M0 114L12.5 112.5C25 111 50 108 75 108.2C100 108.3 125 111.7 150 108.3C175 105 200 95 225 89.5C250 84 275 83 300 82.7C325 82.3 350 82.7 375 89.5C400 96.3 425 109.7 450 115C475 120.3 500 117.7 525 112.3C550 107 575 99 600 99.2C625 99.3 650 107.7 675 111.5C700 115.3 725 114.7 750 114.3C775 114 800 114 825 115.5C850 117 875 120 887.5 121.5L900 123L900 0L887.5 0C875 0 850 0 825 0C800 0 775 0 750 0C725 0 700 0 675 0C650 0 625 0 600 0C575 0 550 0 525 0C500 0 475 0 450 0C425 0 400 0 375 0C350 0 325 0 300 0C275 0 250 0 225 0C200 0 175 0 150 0C125 0 100 0 75 0C50 0 25 0 12.5 0L0 0Z" fill="#a4d0d8"></path><path d="M0 62L12.5 63C25 64 50 66 75 65.7C100 65.3 125 62.7 150 63.8C175 65 200 70 225 73.3C250 76.7 275 78.3 300 74.8C325 71.3 350 62.7 375 58.3C400 54 425 54 450 58.5C475 63 500 72 525 72.8C550 73.7 575 66.3 600 66.8C625 67.3 650 75.7 675 74.2C700 72.7 725 61.3 750 58.3C775 55.3 800 60.7 825 61C850 61.3 875 56.7 887.5 54.3L900 52L900 0L887.5 0C875 0 850 0 825 0C800 0 775 0 750 0C725 0 700 0 675 0C650 0 625 0 600 0C575 0 550 0 525 0C500 0 475 0 450 0C425 0 400 0 375 0C350 0 325 0 300 0C275 0 250 0 225 0C200 0 175 0 150 0C125 0 100 0 75 0C50 0 25 0 12.5 0L0 0Z" fill="#b2adc9"></path><path d="M0 46L12.5 46C25 46 50 46 75 44C100 42 125 38 150 34.7C175 31.3 200 28.7 225 30.3C250 32 275 38 300 39.7C325 41.3 350 38.7 375 40.2C400 41.7 425 47.3 450 49C475 50.7 500 48.3 525 48.5C550 48.7 575 51.3 600 50.2C625 49 650 44 675 39.7C700 35.3 725 31.7 750 29.5C775 27.3 800 26.7 825 29C850 31.3 875 36.7 887.5 39.3L900 42L900 0L887.5 0C875 0 850 0 825 0C800 0 775 0 750 0C725 0 700 0 675 0C650 0 625 0 600 0C575 0 550 0 525 0C500 0 475 0 450 0C425 0 400 0 375 0C350 0 325 0 300 0C275 0 250 0 225 0C200 0 175 0 150 0C125 0 100 0 75 0C50 0 25 0 12.5 0L0 0Z" fill="#bc8f8f"></path></svg>